<svg width="99" height="21" viewBox="0 0 99 21" fill="none" xmlns="http://www.w3.org/2000/svg">
<path d="M0.72809 0.559824H4.92809L7.32809 12.8238L9.87209 0.559824H13.9281L14.2881 19.9998H11.4081L11.0961 6.79983L8.60009 19.9998H6.15209L3.58409 6.72782L3.29609 19.9998H0.39209L0.72809 0.559824Z" fill="#FCFCFC"/>
<path d="M22.5996 20.2638C20.5356 20.2638 19.0636 19.7278 18.1836 18.6558C17.3036 17.5678 16.8636 15.9758 16.8636 13.8798V6.63182C16.8636 4.53582 17.3036 2.95983 18.1836 1.90383C19.0636 0.847825 20.5356 0.319824 22.5996 0.319824C24.6476 0.319824 26.1116 0.855824 26.9916 1.92782C27.8876 2.98382 28.3356 4.55182 28.3356 6.63182V13.9038C28.3356 15.9838 27.8876 17.5678 26.9916 18.6558C26.1116 19.7278 24.6476 20.2638 22.5996 20.2638ZM22.5996 17.4318C23.2716 17.4318 23.7196 17.2078 23.9436 16.7598C24.1836 16.2958 24.3036 15.6638 24.3036 14.8638V5.67183C24.3036 4.87183 24.1836 4.25583 23.9436 3.82382C23.7196 3.37582 23.2716 3.15182 22.5996 3.15182C21.9276 3.15182 21.4716 3.37582 21.2316 3.82382C21.0076 4.25583 20.8956 4.87183 20.8956 5.67183V14.8638C20.8956 15.6798 21.0076 16.3118 21.2316 16.7598C21.4556 17.2078 21.9116 17.4318 22.5996 17.4318Z" fill="#FCFCFC"/>
<path d="M36.4517 20.2638C35.0117 20.2638 33.8837 20.0238 33.0677 19.5438C32.2517 19.0478 31.6757 18.3358 31.3397 17.4078C31.0037 16.4798 30.8357 15.2958 30.8357 13.8558V0.559824H34.7237V14.4078C34.7237 15.3358 34.8357 16.0638 35.0597 16.5918C35.2837 17.1198 35.7477 17.3838 36.4517 17.3838C37.1557 17.3838 37.6197 17.1198 37.8437 16.5918C38.0677 16.0638 38.1797 15.3358 38.1797 14.4078V0.559824H42.0917V13.8558C42.0917 15.2958 41.9237 16.4798 41.5877 17.4078C41.2517 18.3358 40.6677 19.0478 39.8357 19.5438C39.0197 20.0238 37.8917 20.2638 36.4517 20.2638Z" fill="#FCFCFC"/>
<path d="M44.8547 0.559824H47.6147L51.9347 10.6638V0.559824H55.2227V19.9998H52.5587L48.2387 9.24782V19.9998H44.8547V0.559824Z" fill="#FCFCFC"/>
<path d="M59.9678 3.48782H56.9678V0.559824H66.9038V3.48782H63.9518V19.9998H59.9678V3.48782Z" fill="#FCFCFC"/>
<path d="M70.7721 0.559824H75.1641L78.9081 19.9998H75.2601L74.5401 15.7278H71.4681L70.7241 19.9998H67.0041L70.7721 0.559824ZM74.1561 13.2798L72.9801 5.45583L71.8281 13.2798H74.1561Z" fill="#FCFCFC"/>
<path d="M80.9262 0.559824H84.8622V19.9998H80.9262V0.559824Z" fill="#FCFCFC"/>
<path d="M87.8157 0.559824H90.5757L94.8957 10.6638V0.559824H98.1837V19.9998H95.5197L91.1997 9.24782V19.9998H87.8157V0.559824Z" fill="#FCFCFC"/>
</svg>
