<svg width="99" height="21" viewBox="0 0 99 21" fill="none" xmlns="http://www.w3.org/2000/svg">
<path d="M0.39209 20L0.72809 0.559999H4.92809L7.32809 12.824L9.89609 0.559999H13.9521L14.2881 20H11.4081L11.0961 6.824L8.62409 20H6.15209L3.56009 6.728L3.29609 20H0.39209Z" fill="#FCFCFC"/>
<path d="M22.5756 20.264C21.1516 20.264 20.0236 20.008 19.1916 19.496C18.3596 18.984 17.7596 18.256 17.3916 17.312C17.0396 16.352 16.8636 15.208 16.8636 13.88V6.632C16.8636 5.304 17.0396 4.168 17.3916 3.224C17.7596 2.28 18.3596 1.56 19.1916 1.064C20.0236 0.568 21.1516 0.32 22.5756 0.32C24.0156 0.32 25.1516 0.576 25.9836 1.088C26.8316 1.584 27.4316 2.304 27.7836 3.248C28.1516 4.176 28.3356 5.304 28.3356 6.632V13.88C28.3356 15.208 28.1516 16.352 27.7836 17.312C27.4316 18.256 26.8316 18.984 25.9836 19.496C25.1516 20.008 24.0156 20.264 22.5756 20.264ZM22.5756 17.408C23.0876 17.408 23.4636 17.296 23.7036 17.072C23.9436 16.832 24.1036 16.52 24.1836 16.136C24.2636 15.736 24.3036 15.312 24.3036 14.864V5.672C24.3036 5.224 24.2636 4.808 24.1836 4.424C24.1036 4.04 23.9436 3.736 23.7036 3.512C23.4636 3.272 23.0876 3.152 22.5756 3.152C22.0956 3.152 21.7356 3.272 21.4956 3.512C21.2556 3.736 21.0956 4.04 21.0156 4.424C20.9356 4.808 20.8956 5.224 20.8956 5.672V14.864C20.8956 15.312 20.9276 15.736 20.9916 16.136C21.0716 16.52 21.2316 16.832 21.4716 17.072C21.7116 17.296 22.0796 17.408 22.5756 17.408Z" fill="#FCFCFC"/>
<path d="M36.4517 20.264C34.9797 20.264 33.8357 20.016 33.0197 19.52C32.2037 19.008 31.6277 18.28 31.2917 17.336C30.9717 16.376 30.8117 15.216 30.8117 13.856V0.559999H34.7237V14.408C34.7237 14.888 34.7557 15.36 34.8197 15.824C34.8997 16.288 35.0597 16.664 35.2997 16.952C35.5557 17.24 35.9397 17.384 36.4517 17.384C36.9797 17.384 37.3637 17.24 37.6037 16.952C37.8597 16.664 38.0197 16.288 38.0837 15.824C38.1477 15.36 38.1797 14.888 38.1797 14.408V0.559999H42.0917V13.856C42.0917 15.216 41.9237 16.376 41.5877 17.336C41.2677 18.28 40.6997 19.008 39.8837 19.52C39.0677 20.016 37.9237 20.264 36.4517 20.264Z" fill="#FCFCFC"/>
<path d="M44.8547 20V0.559999H47.6147L51.9347 10.688V0.559999H55.1987V20H52.5587L48.2387 9.248V20H44.8547Z" fill="#FCFCFC"/>
<path d="M59.9678 20V3.512H56.9678V0.559999H66.9038V3.512H63.9518V20H59.9678Z" fill="#FCFCFC"/>
<path d="M67.0275 20L70.7955 0.559999H75.1875L78.9315 20H75.2595L74.5635 15.728H71.4915L70.7475 20H67.0275ZM71.8515 13.304H74.1795L73.0035 5.456L71.8515 13.304Z" fill="#FCFCFC"/>
<path d="M80.9496 20V0.559999H84.8856V20H80.9496Z" fill="#FCFCFC"/>
<path d="M87.8625 20V0.559999H90.6225L94.9425 10.688V0.559999H98.2065V20H95.5665L91.2465 9.248V20H87.8625Z" fill="#FCFCFC"/>
</svg>
